HIERARCHY
ROOT Hips
{
	OFFSET 0.000000 71.427986 0.000000
	CHANNELS 6 Xposition Yposition Zposition Xrotation Yrotation Zrotation
	JOINT Pelvis
	{
		OFFSET 0.000000 0.000000 0.000000
		CHANNELS 3 Xrotation Yrotation Zrotation
		JOINT LeftUpLeg
		{
			OFFSET 6.797100 -2.508499 -1.318700
			CHANNELS 3 Xrotation Yrotation Zrotation
			JOINT LeftLeg
			{
				OFFSET 0.069008 -29.241863 0.690200
				CHANNELS 3 Xrotation Yrotation Zrotation
				JOINT LeftFoot
				{
					OFFSET -0.069008 -29.568123 -0.266800
					CHANNELS 3 Xrotation Yrotation Zrotation
					JOINT LeftToeBase
					{
						OFFSET 3.145500 -8.631000 16.059900
						CHANNELS 3 Xrotation Yrotation Zrotation
						End Site
						{
							OFFSET 0.000000 18.501587 0.000000
						}
					}
				}
			}
			JOINT Left_ShortSleeve
			{
				OFFSET 0.265923 -10.480953 1.153800
				CHANNELS 3 Xrotation Yrotation Zrotation
				End Site
				{
					OFFSET 1.725763 19.823879 0.000000
				}
			}
		}
		JOINT RightUpLeg
		{
			OFFSET -6.797100 -2.508499 -1.318700
			CHANNELS 3 Xrotation Yrotation Zrotation
			JOINT RightLeg
			{
				OFFSET -0.082453 -29.241932 0.688000
				CHANNELS 3 Xrotation Yrotation Zrotation
				JOINT RightFoot
				{
					OFFSET 0.082453 -29.568058 -0.264600
					CHANNELS 3 Xrotation Yrotation Zrotation
					JOINT RightToeBase
					{
						OFFSET -3.115300 -8.682800 16.113400
						CHANNELS 3 Xrotation Yrotation Zrotation
						End Site
						{
							OFFSET 0.000000 18.567114 0.000000
						}
					}
				}
			}
			JOINT Right_ShortSleeve
			{
				OFFSET -0.265923 -10.480953 1.153800
				CHANNELS 3 Xrotation Yrotation Zrotation
				End Site
				{
					OFFSET -1.725766 19.823910 0.000000
				}
			}
		}
	}
	JOINT Spine
	{
		OFFSET 0.000000 13.368103 0.470500
		CHANNELS 3 Xrotation Yrotation Zrotation
		JOINT Spine1
		{
			OFFSET 0.147000 13.837402 0.538800
			CHANNELS 3 Xrotation Yrotation Zrotation
			JOINT Spine2
			{
				OFFSET 0.168000 16.242897 -1.435500
				CHANNELS 3 Xrotation Yrotation Zrotation
				JOINT Neck
				{
					OFFSET 0.217200 18.631500 -1.679100
					CHANNELS 3 Xrotation Yrotation Zrotation
					JOINT Head
					{
						OFFSET 0.000000 6.599396 1.385900
						CHANNELS 3 Xrotation Yrotation Zrotation
						JOINT Hat
						{
							OFFSET -0.532200 27.220596 -10.096100
							CHANNELS 3 Xrotation Yrotation Zrotation
							End Site
							{
								OFFSET 0.000000 22.029861 0.000000
							}
						}
						JOINT HairD
						{
							OFFSET -10.777400 17.437393 -1.325900
							CHANNELS 3 Xrotation Yrotation Zrotation
							JOINT HairD1
							{
								OFFSET -3.290299 -11.051193 1.062200
								CHANNELS 3 Xrotation Yrotation Zrotation
								End Site
								{
									OFFSET 0.000000 11.579437 0.000000
								}
							}
						}
						JOINT HairB
						{
							OFFSET -10.777400 17.437393 1.467900
							CHANNELS 3 Xrotation Yrotation Zrotation
							JOINT HairB1
							{
								OFFSET -1.561200 -12.956299 3.590200
								CHANNELS 3 Xrotation Yrotation Zrotation
								End Site
								{
									OFFSET 0.000000 13.534866 0.000000
								}
							}
						}
						JOINT HairA
						{
							OFFSET 9.713100 17.437393 1.467900
							CHANNELS 3 Xrotation Yrotation Zrotation
							JOINT HairA1
							{
								OFFSET 1.561200 -12.956299 3.590200
								CHANNELS 3 Xrotation Yrotation Zrotation
								End Site
								{
									OFFSET 0.000000 13.534866 0.000000
								}
							}
						}
						JOINT HairC
						{
							OFFSET 9.713100 17.437393 -1.325900
							CHANNELS 3 Xrotation Yrotation Zrotation
							JOINT HairC1
							{
								OFFSET 3.290300 -11.051193 1.062200
								CHANNELS 3 Xrotation Yrotation Zrotation
								End Site
								{
									OFFSET 0.000000 11.579437 0.000000
								}
							}
						}
					}
				}
				JOINT LeftShoulder
				{
					OFFSET 5.101800 15.108002 -2.763700
					CHANNELS 3 Xrotation Yrotation Zrotation
					JOINT LeftArm
					{
						OFFSET 9.825497 2.506317 -1.597400
						CHANNELS 3 Xrotation Yrotation Zrotation
						JOINT LeftForeArm
						{
							OFFSET 21.966244 0.000000 0.000000
							CHANNELS 3 Xrotation Yrotation Zrotation
							JOINT LeftHand
							{
								OFFSET 33.879036 0.000000 0.000000
								CHANNELS 3 Xrotation Yrotation Zrotation
								JOINT LeftHandThumb1
								{
									OFFSET 6.715286 -2.359680 3.363841
									CHANNELS 3 Xrotation Yrotation Zrotation
									JOINT LeftHandThumb2
									{
										OFFSET 2.507072 -1.447464 1.447461
										CHANNELS 3 Xrotation Yrotation Zrotation
										JOINT LeftHandThumb3
										{
											OFFSET 2.898338 -1.673355 1.673357
											CHANNELS 3 Xrotation Yrotation Zrotation
											End Site
											{
												OFFSET -0.295959 3.727692 -0.131651
											}
										}
									}
								}
								JOINT LeftHandIndex1
								{
									OFFSET 14.190811 -0.254547 3.840278
									CHANNELS 3 Xrotation Yrotation Zrotation
									JOINT LeftHandIndex2
									{
										OFFSET 3.551727 0.000000 -0.000000
										CHANNELS 3 Xrotation Yrotation Zrotation
										JOINT LeftHandIndex3
										{
											OFFSET 2.894196 0.000000 0.000000
											CHANNELS 3 Xrotation Yrotation Zrotation
											End Site
											{
												OFFSET -1.000603 2.690872 0.366626
											}
										}
									}
								}
								JOINT LeftHandMiddle1
								{
									OFFSET 13.776489 0.000000 0.000000
									CHANNELS 3 Xrotation Yrotation Zrotation
									JOINT LeftHandMiddle2
									{
										OFFSET 3.438232 0.000000 0.000000
										CHANNELS 3 Xrotation Yrotation Zrotation
										JOINT LeftHandMiddle3
										{
											OFFSET 3.691551 0.000000 0.000000
											CHANNELS 3 Xrotation Yrotation Zrotation
											End Site
											{
												OFFSET -1.082298 3.499527 0.457670
											}
										}
									}
								}
								JOINT LeftHandRing1
								{
									OFFSET 13.966164 -0.268127 -3.067488
									CHANNELS 3 Xrotation Yrotation Zrotation
									JOINT LeftHandRing2
									{
										OFFSET 3.162567 0.000000 0.000000
										CHANNELS 3 Xrotation Yrotation Zrotation
										JOINT LeftHandRing3
										{
											OFFSET 3.324348 0.000000 0.000000
											CHANNELS 3 Xrotation Yrotation Zrotation
											End Site
											{
												OFFSET -0.861900 3.184998 0.405154
											}
										}
									}
								}
								JOINT LeftHandPinky1
								{
									OFFSET 13.131393 -0.168503 -5.746925
									CHANNELS 3 Xrotation Yrotation Zrotation
									JOINT LeftHandPinky2
									{
										OFFSET 2.849182 0.000000 0.000000
										CHANNELS 3 Xrotation Yrotation Zrotation
										JOINT LeftHandPinky3
										{
											OFFSET 2.805038 0.000000 0.000000
											CHANNELS 3 Xrotation Yrotation Zrotation
											End Site
											{
												OFFSET -0.882500 2.642609 0.325652
											}
										}
									}
								}
							}
							JOINT Left_Sleeve
							{
								OFFSET 6.592125 -0.646545 0.805568
								CHANNELS 3 Xrotation Yrotation Zrotation
								End Site
								{
									OFFSET -0.000179 20.275787 -0.000000
								}
							}
						}
					}
				}
				JOINT RightShoulder
				{
					OFFSET -5.731700 15.108002 -2.763700
					CHANNELS 3 Xrotation Yrotation Zrotation
					JOINT RightArm
					{
						OFFSET -9.825497 2.506317 -1.597400
						CHANNELS 3 Xrotation Yrotation Zrotation
						JOINT RightForeArm
						{
							OFFSET -21.966242 0.000000 0.000000
							CHANNELS 3 Xrotation Yrotation Zrotation
							JOINT RightHand
							{
								OFFSET -33.879032 0.000000 0.000000
								CHANNELS 3 Xrotation Yrotation Zrotation
								JOINT RightHandThumb1
								{
									OFFSET -6.715286 -2.359680 3.363841
									CHANNELS 3 Xrotation Yrotation Zrotation
									JOINT RightHandThumb2
									{
										OFFSET -2.507072 -1.447464 1.447461
										CHANNELS 3 Xrotation Yrotation Zrotation
										JOINT RightHandThumb3
										{
											OFFSET -2.898338 -1.673355 1.673357
											CHANNELS 3 Xrotation Yrotation Zrotation
											End Site
											{
												OFFSET 0.295959 3.727692 -0.131651
											}
										}
									}
								}
								JOINT RightHandIndex1
								{
									OFFSET -14.190811 -0.254547 3.840278
									CHANNELS 3 Xrotation Yrotation Zrotation
									JOINT RightHandIndex2
									{
										OFFSET -3.551727 0.000000 -0.000000
										CHANNELS 3 Xrotation Yrotation Zrotation
										JOINT RightHandIndex3
										{
											OFFSET -2.894196 0.000000 0.000000
											CHANNELS 3 Xrotation Yrotation Zrotation
											End Site
											{
												OFFSET 1.000603 2.690872 0.366626
											}
										}
									}
								}
								JOINT RightHandMiddle1
								{
									OFFSET -13.776489 0.000000 0.000000
									CHANNELS 3 Xrotation Yrotation Zrotation
									JOINT RightHandMiddle2
									{
										OFFSET -3.438232 0.000000 0.000000
										CHANNELS 3 Xrotation Yrotation Zrotation
										JOINT RightHandMiddle3
										{
											OFFSET -3.691551 0.000000 0.000000
											CHANNELS 3 Xrotation Yrotation Zrotation
											End Site
											{
												OFFSET 1.082298 3.499527 0.457670
											}
										}
									}
								}
								JOINT RightHandRing1
								{
									OFFSET -13.966164 -0.268127 -3.067488
									CHANNELS 3 Xrotation Yrotation Zrotation
									JOINT RightHandRing2
									{
										OFFSET -3.162567 0.000000 0.000000
										CHANNELS 3 Xrotation Yrotation Zrotation
										JOINT RightHandRing3
										{
											OFFSET -3.324348 0.000000 0.000000
											CHANNELS 3 Xrotation Yrotation Zrotation
											End Site
											{
												OFFSET 0.861900 3.184998 0.405154
											}
										}
									}
								}
								JOINT RightHandPinky1
								{
									OFFSET -13.131393 -0.168503 -5.746925
									CHANNELS 3 Xrotation Yrotation Zrotation
									JOINT RightHandPinky2
									{
										OFFSET -2.849182 0.000000 0.000000
										CHANNELS 3 Xrotation Yrotation Zrotation
										JOINT RightHandPinky3
										{
											OFFSET -2.805038 0.000000 0.000000
											CHANNELS 3 Xrotation Yrotation Zrotation
											End Site
											{
												OFFSET 0.882500 2.642609 0.325652
											}
										}
									}
								}
							}
							JOINT Right_Sleeve
							{
								OFFSET -6.592125 -0.646545 0.805568
								CHANNELS 3 Xrotation Yrotation Zrotation
								End Site
								{
									OFFSET 0.000179 20.275787 -0.000000
								}
							}
						}
					}
				}
				JOINT Bind_Right_JacketString
				{
					OFFSET -3.534800 11.969597 7.200700
					CHANNELS 3 Xrotation Yrotation Zrotation
					JOINT Bind_Right_JacketString1
					{
						OFFSET -0.319900 -6.102600 2.794100
						CHANNELS 3 Xrotation Yrotation Zrotation
						End Site
						{
							OFFSET 0.000000 6.719452 0.000000
						}
					}
				}
				JOINT Bind_Left_JacketString
				{
					OFFSET 2.904800 11.969597 7.200700
					CHANNELS 3 Xrotation Yrotation Zrotation
					JOINT Bind_Left_JacketString1
					{
						OFFSET 0.364800 -5.904503 3.186800
						CHANNELS 3 Xrotation Yrotation Zrotation
						End Site
						{
							OFFSET 0.000000 6.719513 0.000000
						}
					}
				}
				JOINT HairE
				{
					OFFSET 5.915200 17.612701 -11.592200
					CHANNELS 3 Xrotation Yrotation Zrotation
					JOINT HairE1
					{
						OFFSET 0.289200 -7.171898 -1.284500
						CHANNELS 3 Xrotation Yrotation Zrotation
						End Site
						{
							OFFSET 0.000000 7.291756 0.000000
						}
					}
				}
				JOINT HairF
				{
					OFFSET -0.864800 17.612701 -11.592200
					CHANNELS 3 Xrotation Yrotation Zrotation
					JOINT HairF1
					{
						OFFSET 0.000000 -14.087097 -2.127501
						CHANNELS 3 Xrotation Yrotation Zrotation
						End Site
						{
							OFFSET 0.000000 14.246841 0.000000
						}
					}
				}
				JOINT HairG
				{
					OFFSET -8.087700 17.612701 -11.592200
					CHANNELS 3 Xrotation Yrotation Zrotation
					JOINT HairG1
					{
						OFFSET -0.293600 -6.081398 -0.910100
						CHANNELS 3 Xrotation Yrotation Zrotation
						End Site
						{
							OFFSET 0.000000 6.156120 0.000000
						}
					}
				}
			}
		}
	}
	JOINT Pouch
	{
		OFFSET 0.000000 4.394501 10.847300
		CHANNELS 3 Xrotation Yrotation Zrotation
		End Site
		{
			OFFSET 0.000000 21.880577 0.000000
		}
	}
	JOINT Bag
	{
		OFFSET -13.229000 4.813004 -0.593300
		CHANNELS 3 Xrotation Yrotation Zrotation
		End Site
		{
			OFFSET 0.000000 21.880577 0.000000
		}
	}
	JOINT OccupyGuyFacialAnim_Joint
	{
		OFFSET 1.000000 -70.206398 -1.655000
		CHANNELS 3 Xrotation Yrotation Zrotation
		End Site
		{
			OFFSET 0.000000 21.880577 0.000000
		}
	}
}
MOTION
Frames: 4
Frame Time: 0.016667
-0.798635 41.882156 -0.361397 0.562580 -175.745385 -9.199021 -0.000000 -0.000000 -0.000000 -77.275749 -10.374296 14.401845 115.640171 8.746067 3.312206 -35.640938 4.590568 -11.774355 0.000000 -0.000002 0.000000 -0.000000 -0.000000 -0.000001 -59.537687 8.980525 -24.053365 107.036024 0.080057 -0.730834 -31.034494 -8.754172 25.844664 0.000000 -0.000003 0.000000 -0.000002 0.000000 0.000000 4.030008 3.656966 -1.940417 8.251963 6.771409 -4.731508 8.251966 6.771407 -4.731511 -1.987050 28.311173 6.773756 5.084068 36.051828 -22.849324 0.000000 0.000000 0.000000 0.000000 0.000000 0.000000 0.000000 0.000000 0.000000 0.000000 0.000000 -0.000000 0.000000 0.000000 -0.000000 0.000000 0.000000 -0.000000 0.000000 0.000000 -0.000000 0.000000 0.000000 0.000000 0.000000 0.000000 0.000000 1.033488 -15.235096 -11.647773 3.042437 -0.761205 -32.016368 40.133563 -33.388171 -1.908155 12.866394 10.638185 2.322254 -9.419876 -10.451170 8.422287 2.321133 6.714508 2.170918 -0.000001 0.000001 0.000000 -1.239087 -9.024533 -4.969427 -0.126825 0.207654 -21.714385 -0.000001 0.000002 -0.000002 1.309895 -1.012401 -8.080155 -0.178463 -0.773452 -14.430113 -0.000001 -0.000001 0.000002 -0.365414 2.944771 -4.498884 -0.505480 -2.597476 -30.199514 0.000002 -0.000001 0.000002 0.029755 5.968255 0.715920 -0.699253 -5.770486 -39.699313 -0.000001 -0.000000 0.000001 -0.000004 0.000001 -0.000000 3.185196 -18.297168 12.806535 12.807452 -13.875009 59.330520 29.940814 40.956888 -3.738855 19.089474 -1.945265 12.311401 -7.852774 4.769983 -9.664437 -0.642368 -0.093871 -1.289328 -0.000003 -0.000002 -0.000000 -1.233005 0.595985 8.695220 0.120542 -1.119634 16.859793 -0.000003 0.000001 0.000002 -1.142346 -1.774134 0.545307 -0.357901 1.142255 22.116006 0.000003 0.000002 -0.000000 1.909918 -0.146216 -2.803261 -0.619906 3.110094 28.344742 -0.000001 -0.000001 -0.000000 4.769423 -2.279023 -7.778121 -1.320418 7.677257 37.620200 -0.000001 0.000001 -0.000003 0.000002 -0.000002 -0.000002 -0.000000 -0.000001 0.000001 -0.000002 0.000000 0.000000 -0.000000 -0.000001 0.000001 -0.000000 -0.000001 0.000001 -0.000000 -0.000001 0.000001 -0.000002 0.000000 0.000000 -0.000000 -0.000001 0.000001 -0.000000 -0.000001 0.000001 -0.000000 -0.000001 0.000001 -0.000002 0.000000 0.000000 -0.000000 -0.000000 -0.000000 -0.000000 -0.000000 -0.000000 -0.000000 -0.000000 -0.000000 
-0.801044 41.881783 -0.366390 0.539996 -175.749305 -9.200706 -0.000000 0.000000 -0.000001 -77.292101 -10.373076 14.397680 115.641810 8.746438 3.312169 -35.651422 4.592723 -11.774467 0.000000 -0.000000 0.000000 0.000000 -0.000000 -0.000000 -59.556791 8.976161 -24.069773 107.037704 0.078365 -0.730849 -31.041277 -8.744248 25.823805 0.000000 -0.000001 -0.000000 -0.000002 0.000001 -0.000000 4.024795 3.654633 -1.940001 8.241340 6.766911 -4.730117 8.241342 6.766907 -4.730118 -1.988030 28.342464 6.708599 5.079926 36.041167 -22.785392 0.000000 0.000000 0.000000 0.000000 0.000000 0.000000 0.000000 0.000000 0.000000 0.000000 0.000000 0.000000 0.000000 -0.000000 0.000000 0.000000 0.000000 0.000000 0.000000 -0.000000 0.000000 0.000000 0.000000 0.000000 0.000000 0.000000 0.000000 1.032227 -15.314483 -11.643160 3.086112 -0.688671 -32.029458 40.144563 -33.392651 -1.914898 12.845089 10.617000 2.348268 -9.419884 -10.451162 8.422282 2.321136 6.714508 2.170921 0.000003 -0.000000 -0.000002 -1.239121 -9.024854 -4.949878 -0.126824 0.207653 -21.714387 0.000002 0.000001 -0.000002 1.310109 -1.010954 -8.062262 -0.178459 -0.773452 -14.430112 0.000003 0.000002 -0.000003 -0.365322 2.945776 -4.487033 -0.505479 -2.597477 -30.199514 0.000003 0.000000 0.000001 0.029732 5.969895 0.729947 -0.699253 -5.770486 -39.699320 -0.000000 -0.000002 0.000001 0.000000 -0.000000 0.000000 3.178408 -18.230231 12.777569 12.845287 -13.905118 59.356673 29.929373 40.938692 -3.736754 19.065792 -1.958737 12.297310 -7.852778 4.769992 -9.664434 -0.642366 -0.093875 -1.289330 0.000002 -0.000001 -0.000001 -1.233009 0.595986 8.695235 0.120540 -1.119630 16.859796 0.000003 -0.000002 0.000003 -1.142355 -1.774137 0.545314 -0.357899 1.142256 22.116007 0.000003 -0.000002 0.000001 1.909928 -0.146219 -2.803227 -0.619906 3.110094 28.344740 -0.000002 0.000002 -0.000003 4.769425 -2.279001 -7.778105 -1.320413 7.677260 37.620200 0.000002 0.000002 -0.000001 0.000002 -0.000001 -0.000001 -0.000000 0.000000 -0.000004 -0.000001 0.000001 0.000001 -0.000000 0.000000 -0.000003 -0.000000 0.000000 -0.000003 -0.000000 0.000000 -0.000004 -0.000001 0.000001 0.000001 -0.000000 0.000000 -0.000003 -0.000000 0.000000 -0.000003 -0.000000 0.000000 -0.000004 -0.000001 0.000001 0.000001 -0.000000 0.000000 -0.000001 -0.000000 0.000000 -0.000001 -0.000000 0.000000 -0.000001 
-0.806535 41.881935 -0.371771 0.522610 -175.739265 -9.201837 -0.000000 0.000000 -0.000001 -77.307223 -10.362354 14.392139 115.642752 8.746465 3.312140 -35.663187 4.588266 -11.763993 0.000000 0.000000 -0.000000 -0.000001 0.000000 0.000000 -59.557706 8.966188 -24.087217 107.037855 0.075622 -0.730998 -31.059244 -8.742668 25.813286 0.000000 0.000001 -0.000000 0.000002 0.000001 -0.000001 4.021700 3.652270 -1.939461 8.234954 6.762119 -4.728766 8.234950 6.762112 -4.728760 -1.961540 28.352930 6.666019 5.081374 36.036679 -22.765803 -0.000000 0.000000 0.000000 -0.000000 0.000000 0.000000 -0.000000 0.000000 0.000000 -0.000000 0.000000 0.000000 -0.000000 0.000000 -0.000000 -0.000000 0.000000 0.000000 -0.000000 0.000000 -0.000000 -0.000000 0.000000 0.000000 -0.000000 0.000000 0.000000 1.018268 -15.384835 -11.671211 3.130071 -0.613952 -31.998425 40.157056 -33.422445 -1.934979 12.833479 10.604160 2.361222 -9.418925 -10.451639 8.419006 2.321136 6.714510 2.170919 0.000003 -0.000002 0.000003 -1.238320 -9.020195 -4.898270 -0.126822 0.207652 -21.714389 -0.000000 -0.000001 -0.000000 1.310625 -1.007226 -8.016511 -0.178459 -0.773451 -14.430115 0.000001 0.000001 0.000001 -0.365113 2.948515 -4.454888 -0.505478 -2.597477 -30.199504 -0.000002 0.000001 -0.000001 0.035301 5.973101 0.766551 -0.699249 -5.770488 -39.699317 -0.000000 0.000001 -0.000002 -0.000002 0.000000 0.000000 3.169453 -18.205178 12.731742 12.862355 -13.921456 59.407660 29.931071 40.882347 -3.744460 19.093907 -1.984742 12.297560 -7.852777 4.769980 -9.664453 -0.642373 -0.093875 -1.289329 -0.000001 -0.000001 0.000000 -1.233006 0.595993 8.695209 0.120544 -1.119631 16.859794 -0.000003 0.000001 0.000002 -1.142367 -1.774129 0.545307 -0.357897 1.142256 22.116009 0.000001 -0.000001 -0.000001 1.909919 -0.146216 -2.803242 -0.619906 3.110097 28.344742 0.000000 -0.000000 -0.000000 4.769409 -2.279017 -7.778129 -1.320419 7.677258 37.620200 0.000001 0.000001 -0.000001 0.000002 -0.000000 -0.000002 -0.000001 -0.000003 -0.000000 0.000001 -0.000001 -0.000001 -0.000001 -0.000003 -0.000000 -0.000001 -0.000003 -0.000000 -0.000001 -0.000003 -0.000000 0.000001 -0.000001 -0.000000 -0.000001 -0.000003 -0.000000 -0.000001 -0.000003 -0.000000 -0.000001 -0.000003 -0.000000 0.000001 -0.000001 -0.000000 -0.000000 0.000000 -0.000001 -0.000000 0.000000 -0.000001 -0.000000 0.000000 -0.000001 
-0.811396 41.882278 -0.377552 0.505406 -175.730331 -9.202981 -0.000000 0.000000 0.000001 -77.321211 -10.351818 14.386895 115.646140 8.746894 3.311739 -35.675608 4.583690 -11.754359 -0.000000 0.000000 -0.000000 -0.000000 0.000000 0.000001 -59.558812 8.957573 -24.102730 107.038114 0.072043 -0.730829 -31.075086 -8.741719 25.804827 0.000000 0.000000 0.000000 0.000001 0.000000 -0.000000 4.017850 3.651150 -1.937158 8.227047 6.760018 -4.723991 8.227053 6.760014 -4.723982 -1.937315 28.365929 6.632012 5.105500 36.028275 -22.760301 -0.000000 0.000000 -0.000000 -0.000000 0.000000 -0.000000 -0.000000 0.000000 -0.000000 -0.000000 0.000000 0.000000 -0.000000 0.000000 -0.000000 -0.000000 0.000000 0.000000 -0.000000 0.000000 -0.000000 -0.000000 0.000000 -0.000000 -0.000000 0.000000 -0.000000 1.010132 -15.419003 -11.688372 3.153019 -0.589270 -31.984645 40.162629 -33.418080 -1.949309 12.827804 10.613318 2.381306 -9.417391 -10.452416 8.413798 2.321135 6.714509 2.170919 0.000004 -0.000001 0.000001 -1.237247 -9.013943 -4.828717 -0.126825 0.207653 -21.714387 0.000000 0.000001 -0.000002 1.311327 -1.002230 -7.954892 -0.178461 -0.773451 -14.430115 0.000000 0.000001 -0.000001 -0.360607 2.951143 -4.408628 -0.505477 -2.597475 -30.199511 0.000004 0.000001 -0.000001 0.043680 5.977961 0.821837 -0.699252 -5.770487 -39.699313 -0.000002 -0.000001 0.000001 -0.000005 0.000000 -0.000000 3.165851 -18.194355 12.713010 12.873446 -13.941518 59.432679 29.941493 40.850945 -3.760534 19.119783 -2.010040 12.308813 -7.852764 4.769965 -9.664436 -0.642371 -0.093875 -1.289331 -0.000001 0.000003 0.000001 -1.233004 0.595979 8.695225 0.120538 -1.119633 16.859798 -0.000003 0.000000 0.000002 -1.142357 -1.774147 0.545304 -0.357899 1.142255 22.116011 0.000001 -0.000001 -0.000003 1.909928 -0.146230 -2.803246 -0.619908 3.110088 28.344742 0.000003 -0.000001 -0.000000 4.769427 -2.279024 -7.778112 -1.320414 7.677260 37.620200 0.000000 -0.000001 -0.000001 0.000001 0.000002 0.000000 0.000000 0.000000 0.000000 0.000001 0.000000 0.000001 0.000000 0.000000 -0.000000 0.000000 0.000000 -0.000000 0.000000 0.000000 0.000000 0.000001 0.000000 0.000002 0.000000 0.000000 -0.000000 0.000000 0.000000 -0.000000 0.000000 0.000000 0.000000 0.000001 0.000000 0.000002 -0.000000 0.000000 0.000001 -0.000000 0.000000 0.000001 -0.000000 0.000000 0.000001 
